<svg xmlns="http://www.w3.org/2000/svg" width="9.2mm" height="8.21mm" viewBox="0 0 26.08 23.28"><defs><style>.cls-1 {
  fill: #45473b;
}

.cls-2 {
  fill: #fff;
}

</style></defs><g id="Layer_2" data-name="Layer 2"><g id="Layer_1-2" data-name="Layer 1"><path class="cls-1" d="M10.8,17.48a9.3,9.3,0,0,1,9.3-9.3,9.15,9.15,0,0,1,2.17.27,2.23,2.23,0,0,1,2.11-1.56V3.09A3.08,3.08,0,0,0,21.3,0H3.09A3.09,3.09,0,0,0,0,3.09v3.8A2.23,2.23,0,0,1,2.23,9.12,2.23,2.23,0,0,1,0,11.35v4.17a3.09,3.09,0,0,0,3.09,3.09h7.79A10.54,10.54,0,0,1,10.8,17.48Z"></path><circle class="cls-1" cx="19.6" cy="16.8" r="6.48"></circle><rect class="cls-2" x="18.55" y="13.09" width="2.09" height="7.42" rx="0.83"></rect><rect class="cls-2" x="18.55" y="13.09" width="2.09" height="7.42" rx="0.83" transform="translate(2.8 36.4) rotate(-90)"></rect></g></g></svg>