<svg xmlns="http://www.w3.org/2000/svg" width="8.6mm" height="10.53mm" viewBox="0 0 24.38 29.84"><defs><style>.cls-1{fill:#45473b;}</style></defs><g id="Layer_2" data-name="Layer 2"><g id="Layer_1-2" data-name="Layer 1"><path class="cls-1" d="M6.13,11.87h0c-3.15,0-6-1.75-6-4.15L0,6.73a18.63,18.63,0,0,1,.2-2.5L.86.53H2l.83,6.09h7.18L10.37.53h1.05l.86,4.14a10,10,0,0,1,.21,2v.56C12.49,9.81,9.64,11.87,6.13,11.87Z"/><polygon class="cls-1" points="7.86 7.94 4.77 7.94 5.6 0.17 7.12 0.17 7.86 7.94"/><path class="cls-1" d="M.3,7.94A3.93,3.93,0,0,0,.13,9c0,2.69,2.77,4.87,6.18,4.87S12.49,11.71,12.49,9a5.32,5.32,0,0,0-.14-1.27Z"/><ellipse class="cls-1" cx="1.07" cy="7.15" rx="1.07" ry="4.12"/><ellipse class="cls-1" cx="11.53" cy="7.46" rx="1.07" ry="3.66"/><rect class="cls-1" x="4.79" y="12.82" width="3.04" height="17.02" rx="0.83"/><path class="cls-1" d="M24.38,17.87l-1.74-1.58c-3.54-3.22-3-7.26-1.82-11.36.15-.54-.26-1.3.11-1.76l.16-.95C21.82,1.29,23,0,24.38,0V.46c0,.31,0,.34,0,.9Z"/><rect class="cls-1" x="21.34" y="12.82" width="3.04" height="17.02" rx="0.83"/><path class="cls-1" d="M24.33,0C21,0,19.81,3.63,18.22,7.58c-1.7,4.2,2.74,7.57,6.11,7.57Z"/></g></g></svg>