<svg xmlns="http://www.w3.org/2000/svg" width="42.18" height="38.665" viewBox="0 0 31.64 28.99"><defs><style>.cls-1{fill:#45473b}</style></defs><g id="Layer_2" data-name="Layer 2"><g id="Layer_1-2" data-name="Layer 1"><path class="cls-1" d="M2.66 0h8a2.66 2.66 0 0 1 2.66 2.66v13.18H2.66A2.66 2.66 0 0 1 0 13.18V2.66A2.66 2.66 0 0 1 2.66 0Z"/><path class="cls-1" d="M7.08 28.65a1.18 1.18 0 0 1-1.44-.14 1.2 1.2 0 0 1-.28-1.35l.91-2.1A17.52 17.52 0 0 0 7.6 20l.46-4.32h5.07a.14.14 0 0 1 .15.16l-.39 2.41a19.07 19.07 0 0 1-3 7.61 9.33 9.33 0 0 1-2.81 2.79ZM21 .16h8a2.66 2.66 0 0 1 2.66 2.66V16H21a2.66 2.66 0 0 1-2.66-2.66V2.82A2.66 2.66 0 0 1 21 .16Z"/><path class="cls-1" d="M25.44 28.81a1.18 1.18 0 0 1-1.44-.14 1.2 1.2 0 0 1-.28-1.35l.91-2.09A17.34 17.34 0 0 0 26 20.17l.46-4.32h5.08a.14.14 0 0 1 .14.16l-.38 2.41a19.37 19.37 0 0 1-3 7.61 9.33 9.33 0 0 1-2.86 2.78Z"/></g></g></svg>